<svg width="106" height="24" viewBox="0 0 106 24" fill="none" xmlns="http://www.w3.org/2000/svg">
<path d="M40.5965 19.8977V22.597C40.288 22.7513 39.8252 22.8284 39.2854 22.9055C38.7455 22.9826 38.2057 23.0598 37.7429 23.0598C36.0462 23.0598 34.8122 22.6741 34.041 21.9029C33.2698 21.1317 32.8842 19.8977 32.8842 18.1239V11.9541H31.1104V9.33188H32.9613L33.424 4.62738H36.0462V9.33188H40.3651V11.9541H36.0462V18.0468C36.0462 18.818 36.2005 19.3579 36.5861 19.6663C36.8946 19.9748 37.5116 20.1291 38.437 20.1291C38.7455 20.1291 39.1311 20.1291 39.5167 20.052C40.0566 20.052 40.3651 19.9748 40.5965 19.8977Z" fill="#5364E1"/>
<path d="M48.5399 9.10051C47.4602 9.10051 46.4576 9.17763 45.6864 9.25475C44.9151 9.33188 44.1439 9.48612 43.4498 9.64037V12.2626C44.0668 12.1083 44.6838 12.0312 45.3779 11.9541C46.072 11.8769 46.7661 11.8769 47.6916 11.8769C48.617 11.8769 49.3111 12.0312 49.7739 12.3397C50.2366 12.6482 50.468 13.188 50.468 13.8821V15.039C50.0824 14.9618 49.6196 14.8847 49.0798 14.8076C48.5399 14.7305 48.0001 14.7305 47.4602 14.7305C45.5321 14.7305 44.221 15.039 43.4498 15.656C42.6786 16.2729 42.293 17.3527 42.293 18.818C42.293 20.2833 42.6015 21.3631 43.2956 22.0572C43.9125 22.7513 44.9923 23.0598 46.3805 23.0598C47.0746 23.0598 47.8458 22.9055 48.617 22.6741C49.3883 22.4428 50.0824 22.0572 50.6222 21.5944H50.6994L50.8536 22.8284H53.7843V13.5736C53.7843 12.0312 53.3987 10.9515 52.5503 10.1802C51.3935 9.48612 50.1595 9.10051 48.5399 9.10051ZM50.3137 19.5892C49.851 19.8206 49.3883 20.052 48.7713 20.2062C48.1543 20.3604 47.6144 20.4376 47.0746 20.4376C46.3805 20.4376 45.8406 20.2833 45.5321 20.052C45.2236 19.8206 45.0694 19.3579 45.0694 18.7409C45.0694 18.1239 45.2236 17.6612 45.6092 17.4298C45.9949 17.1984 46.689 17.1213 47.6144 17.1213C48.0772 17.1213 48.5399 17.1213 49.0027 17.1984C49.4654 17.2755 49.851 17.2755 50.3137 17.3527V19.5892Z" fill="#5364E1"/>
<path d="M64.4272 9.10051C63.4246 9.10051 62.5762 9.25476 61.805 9.48612C61.0338 9.71749 60.3396 10.1802 59.7227 10.7201H59.6455L59.4913 9.33188H56.792V22.8284H59.954V12.8024C60.4168 12.4939 60.9566 12.2625 61.5736 12.1083C62.1135 11.9541 62.7305 11.8769 63.3474 11.8769C64.1958 11.8769 64.8128 12.0312 65.2755 12.4168C65.7382 12.7253 65.8925 13.2651 65.8925 13.8821V22.8284H69.0545V13.4965C69.0545 12.0312 68.6689 10.9515 67.8977 10.1802C67.0493 9.48612 65.9696 9.10051 64.4272 9.10051Z" fill="#5364E1"/>
<path d="M81.0858 9.56325C80.7002 9.40901 80.2374 9.33188 79.6976 9.25475C79.1577 9.17763 78.6178 9.10051 78.0009 9.10051C75.7643 9.10051 74.2218 9.64037 73.2192 10.7972C72.2938 11.8769 71.7539 13.6508 71.7539 16.1187C71.7539 18.5866 72.1395 20.4376 72.9107 21.5173C73.682 22.597 74.9931 23.1369 76.7669 23.1369C77.6924 23.1369 78.4636 22.9826 79.1577 22.7513C79.8518 22.5199 80.4688 22.1343 81.0086 21.5944H81.1629L81.3943 22.8284H84.1707V4.62738H81.0086V9.56325H81.0858ZM81.0858 19.435C80.7002 19.6663 80.2374 19.8206 79.6976 19.9748C79.1577 20.1291 78.6178 20.1291 78.078 20.1291C76.844 20.1291 76.0728 19.8206 75.6872 19.2807C75.3016 18.7409 75.0702 17.6612 75.0702 16.0416C75.0702 14.422 75.3016 13.2651 75.7643 12.7253C76.227 12.1854 77.1525 11.8769 78.5407 11.8769C79.0806 11.8769 79.5433 11.8769 79.9289 11.9541C80.3145 12.0312 80.7773 12.1854 81.1629 12.3397V19.435H81.0858Z" fill="#5364E1"/>
<path d="M90.8036 9.33187H87.6416V22.8284H90.8036V9.33187Z" fill="#5364E1"/>
<path d="M90.9579 4.7045H87.5645V7.48092H90.9579V4.7045Z" fill="#5364E1"/>
<path d="M103.529 10.2574C102.681 9.48612 101.447 9.10051 99.827 9.10051C98.7473 9.10051 97.7447 9.17763 96.9735 9.25475C96.2023 9.33188 95.431 9.48612 94.7369 9.64037V12.2626C95.3539 12.1083 95.9709 12.0312 96.665 11.9541C97.3591 11.8769 98.0532 11.8769 98.9787 11.8769C99.9042 11.8769 100.598 12.0312 101.061 12.3397C101.524 12.6482 101.755 13.188 101.755 13.8821V15.039C101.369 14.9618 100.907 14.8847 100.367 14.8076C99.827 14.7305 99.2872 14.7305 98.7473 14.7305C96.8192 14.7305 95.5082 15.039 94.7369 15.656C93.9657 16.2729 93.5801 17.3527 93.5801 18.818C93.5801 20.2833 93.8886 21.3631 94.5827 22.0572C95.1997 22.7513 96.2794 23.0598 97.6676 23.0598C98.3617 23.0598 99.1329 22.9055 99.9042 22.6741C100.675 22.4428 101.37 22.0572 101.909 21.5944H101.986L102.141 22.8284H105.071V13.5736C104.763 12.1083 104.377 10.9515 103.529 10.2574ZM101.601 19.5892C101.138 19.8206 100.675 20.052 100.058 20.2062C99.4414 20.3604 98.9016 20.4376 98.3617 20.4376C97.6676 20.4376 97.1277 20.2833 96.8192 20.052C96.5107 19.8206 96.3565 19.3579 96.3565 18.7409C96.3565 18.1239 96.5108 17.6612 96.8964 17.4298C97.282 17.1984 97.9761 17.1213 98.9016 17.1213C99.3643 17.1213 99.827 17.1213 100.29 17.1984C100.753 17.2755 101.138 17.2755 101.601 17.3527V19.5892Z" fill="#5364E1"/>
<path d="M25.0952 0H2.1897C1.88121 0 1.57271 -2.3559e-06 1.26422 0.154243C1.26422 0.154243 1.1871 0.154248 1.1871 0.231371C1.10998 0.231371 1.03286 0.308499 1.03286 0.308499C0.955733 0.308499 0.95573 0.385614 0.878607 0.385614C0.801484 0.462737 0.724364 0.462735 0.647242 0.539858L0.570114 0.616985C0.570114 0.616985 0.570114 0.61699 0.570114 0.694113C0.570114 0.694113 0.570115 0.694106 0.492992 0.771229L0.415871 0.848356L0.338749 0.925472C0.338749 0.925472 0.33875 1.0026 0.261627 1.0026C0.261627 1.0026 0.261627 1.0026 0.261627 1.07973C0.261627 1.15685 0.1845 1.23397 0.1845 1.23397C0.0302537 1.61959 -0.0468668 2.0052 0.0302561 2.39081V2.46793C0.0302561 2.46793 0.0302561 2.46793 0.0302561 2.54506C0.0302561 2.62218 0.107378 2.6993 0.107378 2.6993C0.107378 2.77642 0.184504 2.85355 0.261627 2.93067C0.492996 3.39341 0.955733 3.7019 1.41847 3.85614C5.35174 5.01299 8.89939 7.4038 11.5216 10.7972C12.0614 11.4913 12.5242 12.1854 12.9098 12.9566C14.5294 15.7331 15.3777 18.7409 15.532 21.7487V21.8258C15.532 21.8258 15.532 21.8258 15.532 21.9029C15.532 22.2114 15.4548 22.5199 15.3777 22.7513L15.6091 22.3656L26.869 2.85354C27.6403 1.6967 26.7148 0 25.0952 0Z" fill="#5364E1"/>
<path d="M14.2975 21.98C14.2975 22.2885 14.2204 22.597 14.1433 22.8284L14.0661 22.9826C13.9119 23.214 13.7576 23.3682 13.6034 23.5225L13.5263 23.5996C13.4491 23.6767 13.372 23.6767 13.2949 23.7538C13.0635 23.9081 12.755 23.9852 12.5237 23.9852C11.9067 24.0623 11.2897 23.831 10.827 23.4454L10.7498 23.3682C10.6727 23.2911 10.5956 23.1369 10.5185 23.0597C10.3642 22.7513 10.2871 22.3656 10.2871 22.0571V10.9514C10.827 11.6456 11.2897 12.3397 11.6753 13.1109C13.2949 15.8873 14.1433 18.8951 14.2975 21.9029C14.2975 21.9029 14.2975 21.9029 14.2975 21.98Z" fill="#5364E1"/>
</svg>